<?xml version="1.0" encoding="utf-8"?>
<!-- Generator: Adobe Illustrator 18.1.1, SVG Export Plug-In . SVG Version: 6.00 Build 0)  -->
<!DOCTYPE svg PUBLIC "-//W3C//DTD SVG 1.1//EN" "http://www.w3.org/Graphics/SVG/1.1/DTD/svg11.dtd">
<svg version="1.1" id="Layer_1" xmlns="http://www.w3.org/2000/svg" xmlns:xlink="http://www.w3.org/1999/xlink" x="0px" y="0px"
	 width="38px" height="38px" viewBox="-375 277 38 38" enable-background="new -375 277 38 38" xml:space="preserve">
<g id="_x23_2d80a7ff">
	<path fill="#2D80A7" d="M-357.2,277h2.3c9,0.6,16.9,7.9,17.8,16.9v3.9c-0.6,8.8-8.1,16.3-16.8,17.2h-4c-9.1-0.8-16.5-8.7-17.1-17.7
		v-2.7C-374.2,285.4-366.4,277.7-357.2,277 M-363.6,286.9c-1,0.1-1.7,1.1-1.6,2.1c-0.2,4.2,0,8.4-0.1,12.6c0.1,1.3-0.3,3.3,1.3,3.8
		c4.2,0.6,8.4-0.1,12.6,0.2c1.5-0.2,4.3,0.5,4.7-1.6c0.3-4.5-0.1-9,0.1-13.5c0-1.3,0.1-3.4-1.6-3.6
		C-353.3,286.8-358.5,286.7-363.6,286.9z"/>
	<path fill="#2D80A7" d="M-352.1,289.5c0.8-0.8,2.3-0.3,3.4-0.5c0,1.2,0,2.3,0.1,3.5c-1.2,0-2.4,0-3.7,0
		C-352.3,291.7-352.2,290.2-352.1,289.5z"/>
	<path fill="#2D80A7" d="M-357.5,293c2.6-1.6,6,1.4,5,4.2c-0.6,2.6-4.4,3.4-6,1.3C-360.1,296.9-359.5,294-357.5,293z"/>
	<path fill="#2D80A7" d="M-363,294.8c0.3,0,1-0.1,1.3-0.1c0.3,1.8,0.2,4,1.6,5.4c2.2,2.6,6.6,2.5,8.7-0.2c1.3-1.4,1.2-3.4,1.4-5.2
		c0.3,0.1,1,0.2,1.3,0.2c0,2.8,0,5.6,0,8.4c-4.7,0-9.5,0-14.2,0C-363,300.5-362.9,297.6-363,294.8z"/>
</g>
<g id="_x23_ffffffff">
	<path fill="#FFFFFF" d="M-363.6,286.9c5.1-0.2,10.3-0.2,15.4,0c1.8,0.1,1.7,2.3,1.6,3.6c-0.2,4.5,0.3,9-0.1,13.5
		c-0.4,2.1-3.1,1.4-4.7,1.6c-4.2-0.3-8.4,0.4-12.6-0.2c-1.7-0.4-1.2-2.5-1.3-3.8c0.1-4.2-0.1-8.4,0.1-12.6
		C-365.2,288-364.6,287-363.6,286.9 M-352.1,289.5c-0.1,0.7-0.2,2.2-0.2,3c1.2,0,2.4,0,3.7,0c0-1.2,0-2.3-0.1-3.5
		C-349.8,289.2-351.3,288.7-352.1,289.5 M-357.5,293c-2,1-2.7,3.9-1,5.5c1.6,2.1,5.4,1.3,6-1.3C-351.4,294.4-354.8,291.4-357.5,293
		 M-363,294.8c0,2.8,0,5.6,0.1,8.5c4.7,0.1,9.5,0,14.2,0c0-2.8,0-5.6,0-8.4c-0.3-0.1-1-0.2-1.3-0.2c-0.2,1.8-0.1,3.8-1.4,5.2
		c-2.1,2.7-6.5,2.8-8.7,0.2c-1.5-1.4-1.3-3.5-1.6-5.4C-362,294.7-362.7,294.8-363,294.8z"/>
</g>
</svg>
