<?xml version="1.0" encoding="UTF-8"?>
<!-- Generator: Adobe Illustrator 18.1.1, SVG Export Plug-In . SVG Version: 6.00 Build 0)  -->
<!DOCTYPE svg PUBLIC "-//W3C//DTD SVG 1.1//EN" "http://www.w3.org/Graphics/SVG/1.1/DTD/svg11.dtd">
<svg version="1.1" id="Layer_1" xmlns="http://www.w3.org/2000/svg" xmlns:xlink="http://www.w3.org/1999/xlink" x="0px" y="0px" width="38px" height="38.1px" viewBox="-375 277 38 38.1" enable-background="new -375 277 38 38.1" xml:space="preserve">
<g id="_x23_00ace4ff">
	<path fill="#00ACE4" d="M-357.7,277h3.4c4.7,0.8,9.4,2.8,12.5,6.5c5,5.5,6.2,14.1,2.9,20.8c-2.8,6.2-9.1,10.3-15.8,10.8h-2.1   c-5.2-0.3-10.4-2.8-13.7-6.9c-2.6-3.1-3.9-7-4.5-11v-2c0.5-4.3,2-8.5,4.9-11.7C-367,279.8-362.4,277.8-357.7,277 M-364.4,287.1   c-0.9,2.1-0.7,4.4,0.7,6.2c-0.5-0.1-1.5-0.4-2-0.5c-0.1,2.1,1.4,3.5,2.8,4.7c-0.5,0.1-1.4,0.2-1.9,0.2c0.9,1.6,2.3,2.7,3.8,3.7   c-2.1,1-4.3,1.1-6.6,1c3.6,2.3,8.1,3.8,12.3,2.3c5.1-1.3,8.4-6.2,9.3-11.3c0.8-0.7,1.5-1.4,2.3-2.2l-2,0.3c0.5-0.5,1.5-1.6,2-2.1   c-0.7,0.1-2.1,0.4-2.8,0.5c-1.5-1.6-3.9-2.5-6.1-1.5c-1.8,0.8-2.7,2.7-2.8,4.6C-359.1,292.5-362,289.9-364.4,287.1z"/>
</g>
<g id="_x23_ffffffff">
	<path fill="#FFFFFF" d="M-364.4,287.1c2.4,2.8,5.3,5.5,9,6c0.1-1.9,1-3.8,2.8-4.6c2.1-1,4.5-0.1,6.1,1.5c0.7-0.1,2.1-0.4,2.8-0.5   c-0.5,0.5-1.5,1.6-2,2.1l2-0.3c-0.8,0.7-1.5,1.4-2.3,2.2c-0.8,5-4.1,10-9.3,11.3c-4.2,1.5-8.7,0.1-12.3-2.3c2.2,0.1,4.5,0,6.6-1   c-1.5-1-2.9-2.2-3.8-3.7c0.5-0.1,1.4-0.2,1.9-0.2c-1.4-1.2-2.9-2.6-2.8-4.7c0.5,0.1,1.5,0.4,2,0.5   C-365,291.5-365.2,289.2-364.4,287.1z"/>
</g>
</svg>